# xmcd
#
# Track frame offsets:
#	150
#	14999
#	31423
#	46580
#	62393
#	90908
#	104381
#	126655
#	140870
#	153555
#	171847
#
# Disc length: 2478 seconds
#
# Revision: 1
# Processed by: cddbd v1.5.2PL0 Copyright (c) Steve Scherf et al.
# Submitted via: EasyCDDAExtractor 10.2.0.1
#
DISCID=9509ac0b
DTITLE=Mikko Löytty - Mikko Löytty - Minkäs sille voi
DYEAR=2006
DGENRE=Blues
TTITLE0=Minkäs sille voi
TTITLE1=Älä murehdi
TTITLE2=Kun on perjantai
TTITLE3=Liikennemerkki
TTITLE4=Vakava kuu
TTITLE5=Laukkaava lotta
TTITLE6=Hymy vain
TTITLE7=Iisi liisi
TTITLE8=Blues purppurasydämmestä
TTITLE9=Loivaa voimaa
TTITLE10=Näiden vuosien jälkeen
EXTD=
EXTT0=
EXTT1=
EXTT2=
EXTT3=
EXTT4=
EXTT5=
EXTT6=
EXTT7=
EXTT8=
EXTT9=
EXTT10=
PLAYORDER=
